<svg xmlns="http://www.w3.org/2000/svg" viewBox="0 0 400 400" width="400" height="400">
  <rect width="400" height="400" fill="white"/>
  <!-- Top-left wing -->
  <path d="M195,200 Q140,120 80,100 Q30,90 40,150 Q50,200 120,210 Q160,215 195,200 Z" fill="white" stroke="black" stroke-width="7" stroke-linejoin="round"/>
  <!-- Top-right wing -->
  <path d="M205,200 Q260,120 320,100 Q370,90 360,150 Q350,200 280,210 Q240,215 205,200 Z" fill="white" stroke="black" stroke-width="7" stroke-linejoin="round"/>
  <!-- Bottom-left wing -->
  <path d="M195,205 Q130,220 90,270 Q60,310 100,340 Q140,365 185,320 Q205,290 200,210 Z" fill="white" stroke="black" stroke-width="7" stroke-linejoin="round"/>
  <!-- Bottom-right wing -->
  <path d="M205,205 Q270,220 310,270 Q340,310 300,340 Q260,365 215,320 Q195,290 200,210 Z" fill="white" stroke="black" stroke-width="7" stroke-linejoin="round"/>
  <!-- Wing decorations - top left -->
  <circle cx="120" cy="150" r="22" fill="white" stroke="black" stroke-width="5"/>
  <circle cx="160" cy="175" r="14" fill="white" stroke="black" stroke-width="5"/>
  <!-- Wing decorations - top right -->
  <circle cx="280" cy="150" r="22" fill="white" stroke="black" stroke-width="5"/>
  <circle cx="240" cy="175" r="14" fill="white" stroke="black" stroke-width="5"/>
  <!-- Wing decorations - bottom left -->
  <circle cx="135" cy="290" r="18" fill="white" stroke="black" stroke-width="5"/>
  <!-- Wing decorations - bottom right -->
  <circle cx="265" cy="290" r="18" fill="white" stroke="black" stroke-width="5"/>
  <!-- Body -->
  <ellipse cx="200" cy="210" rx="12" ry="80" fill="white" stroke="black" stroke-width="7"/>
  <!-- Head -->
  <circle cx="200" cy="125" r="18" fill="white" stroke="black" stroke-width="7"/>
  <!-- Eyes -->
  <circle cx="193" cy="121" r="5" fill="black"/>
  <circle cx="207" cy="121" r="5" fill="black"/>
  <!-- Antennae -->
  <path d="M195,108 Q175,75 165,58" fill="none" stroke="black" stroke-width="5" stroke-linecap="round"/>
  <circle cx="162" cy="53" r="8" fill="white" stroke="black" stroke-width="5"/>
  <path d="M205,108 Q225,75 235,58" fill="none" stroke="black" stroke-width="5" stroke-linecap="round"/>
  <circle cx="238" cy="53" r="8" fill="white" stroke="black" stroke-width="5"/>
</svg>
