<svg xmlns="http://www.w3.org/2000/svg" viewBox="0 0 400 400" width="400" height="400">
  <rect width="400" height="400" fill="white"/>
  <!-- Rocket body -->
  <rect x="155" y="150" width="90" height="160" rx="10" fill="white" stroke="black" stroke-width="8"/>
  <!-- Rocket nose cone -->
  <path d="M155,150 Q200,30 245,150 Z" fill="white" stroke="black" stroke-width="8" stroke-linejoin="round"/>
  <!-- Left fin -->
  <path d="M155,265 Q100,290 110,330 L155,310 Z" fill="white" stroke="black" stroke-width="8" stroke-linejoin="round"/>
  <!-- Right fin -->
  <path d="M245,265 Q300,290 290,330 L245,310 Z" fill="white" stroke="black" stroke-width="8" stroke-linejoin="round"/>
  <!-- Window -->
  <circle cx="200" cy="210" r="32" fill="white" stroke="black" stroke-width="8"/>
  <circle cx="200" cy="210" r="18" fill="white" stroke="black" stroke-width="5"/>
  <!-- Exhaust nozzle -->
  <rect x="170" y="308" width="60" height="18" rx="5" fill="white" stroke="black" stroke-width="7"/>
  <!-- Flames -->
  <path d="M175,326 Q185,370 200,355 Q215,370 225,326" fill="white" stroke="black" stroke-width="6" stroke-linejoin="round"/>
  <path d="M182,326 Q188,358 200,345 Q212,358 218,326" fill="white" stroke="black" stroke-width="5" stroke-linejoin="round"/>
  <!-- Stars -->
  <polygon points="55,80 59,92 72,92 62,100 66,112 55,104 44,112 48,100 38,92 51,92" fill="white" stroke="black" stroke-width="4"/>
  <polygon points="330,55 333,64 342,64 335,70 338,79 330,73 322,79 325,70 318,64 327,64" fill="white" stroke="black" stroke-width="4"/>
  <polygon points="350,130 352,136 358,136 353,140 355,146 350,142 345,146 347,140 342,136 348,136" fill="white" stroke="black" stroke-width="3"/>
  <polygon points="70,160 72,166 78,166 73,170 75,176 70,172 65,176 67,170 62,166 68,166" fill="white" stroke="black" stroke-width="3"/>
  <polygon points="310,200 312,206 318,206 313,210 315,216 310,212 305,216 307,210 302,206 308,206" fill="white" stroke="black" stroke-width="3"/>
</svg>
